:FULLY-SPECIFIED
:FORCE-ALL-JOINTS-BE-3DOF
:DEGREES
2344
root 1.57073 14.3256 -18.4377 -154.555 -72.0244 163.066
lfemur -24.9608 -2.41649 3.58029
ltibia 34.2604 -0 0
lfoot -8.83709 16.7816 -0.648199
ltoes -31.9948 0 0
rfemur -63.2543 -5.99154 9.51967
rtibia 76.8587 -0 0
rfoot -15.7036 -12.4136 0.216649
rtoes 0.325928 -0 0
lowerback 20.4153 2.28187 -2.4874
upperback 0.233953 2.36531 0.279601
thorax -11.3488 1.21102 1.03862
lowerneck -5.66253 -0.79696 -3.62573
upperneck 3.78497 -0.754459 -0.895982
head 2.3723 -0.462391 0.352267
lclavicle 4.90998e-14 -1.82882e-14 0
lhumerus -22.4675 -30.3415 85.6036
lradius 105.126 -0 0
lwrist 57.5328 0 0
lhand -20.4674 39.7091 0.0418554
lfingers 7.12502 -0 0
lthumb 5.88829 69.5989 0.0395141
rclavicle 4.90998e-14 -1.82882e-14 0
rhumerus 40.7613 15.0279 -43.3051
rradius 54.5086 -0 0
rwrist 3.09821 0 0
rhand -6.69942 -40.9941 -0.0401225
rfingers 7.12502 -0 0
rthumb 19.1586 -70.0533 -0.0340157
2345
root 1.69954 14.3857 -18.5563 -150.128 -75.3999 159.094
lfemur -27.9409 -2.35691 4.15905
ltibia 34.3478 -0 0
lfoot -7.96103 15.3659 -0.581021
ltoes -30.4335 0 0
rfemur -62.5084 -4.78356 9.29308
rtibia 76.5971 -0 0
rfoot -16.3829 -13.0233 0.194256
rtoes -0.0315545 0 0
lowerback 20.6143 2.20491 -2.15046
upperback 0.231156 2.34749 0.335521
thorax -11.4506 1.18732 0.907522
lowerneck -5.78142 -0.247394 -3.20978
upperneck 3.87178 -0.0219202 -1.37125
head 2.38983 -0.107148 0.151362
lclavicle 4.90998e-14 -1.82882e-14 0
lhumerus -19.1033 -31.2253 84.0828
lradius 105.839 -0 0
lwrist 57.1519 0 0
lhand -20.7117 39.3816 0.0375331
lfingers 7.12502 -0 0
lthumb 5.65246 69.2786 0.0354336
rclavicle 4.90998e-14 -1.82882e-14 0
rhumerus 39.718 16.1368 -42.955
rradius 55.915 -0 0
rwrist 2.24522 0 0
rhand -6.38326 -41.2366 -0.0359792
rfingers 7.12502 -0 0
rthumb 19.4627 -70.2671 -0.0305031
2346
root 1.82006 14.4421 -18.6671 -143.759 -78.4683 153.15
lfemur -30.7467 -2.27339 4.70056
ltibia 34.4301 -0 0
lfoot -7.13772 14.0337 -0.49799
ltoes -28.963 0 0
rfemur -61.8114 -3.64329 9.09442
rtibia 76.3508 -0 0
rfoot -17.0224 -13.5973 0.166559
rtoes -0.368231 0 0
lowerback 20.8012 2.13136 -1.83339
upperback 0.228505 2.33071 0.388185
thorax -11.5464 1.16478 0.784091
lowerneck -5.88974 0.270962 -2.81908
upperneck 3.948 0.66862 -1.81787
head 2.4052 0.227474 -0.0377527
lclavicle 4.90998e-14 -1.82882e-14 0
lhumerus -15.8826 -31.9856 82.5843
lradius 106.51 -0 0
lwrist 56.7931 0 0
lhand -20.9418 39.0732 0.0321857
lfingers 7.12502 -0 0
lthumb 5.43038 68.977 0.0303854
rclavicle 4.90998e-14 -1.82882e-14 0
rhumerus 38.7365 17.1866 -42.6429
rradius 57.2395 -0 0
rwrist 1.44188 0 0
rhand -6.08553 -41.465 -0.0308532
rfingers 7.12502 -0 0
rthumb 19.7491 -70.4684 -0.0261575
2347
root 1.93045 14.4939 -18.7685 -134.249 -81.102 144.03
lfemur -33.3308 -2.17308 5.19529
ltibia 34.5059 -0 0
lfoot -6.38107 12.8075 -0.404574
ltoes -27.6083 0 0
rfemur -61.1734 -2.59065 8.92388
rtibia 76.1239 -0 0
rfoot -17.6113 -14.1258 0.135372
rtoes -0.678428 0 0
lowerback 20.973 2.06268 -1.54148
upperback 0.226049 2.31525 0.436708
thorax -11.6347 1.14384 0.670402
lowerneck -5.98642 0.749191 -2.45996
upperneck 4.01346 1.30536 -2.22863
head 2.41839 0.535821 -0.21192
lclavicle 4.90998e-14 -1.82882e-14 0
lhumerus -12.8724 -32.6211 81.1501
lradius 107.129 -0 0
lwrist 56.4626 0 0
lhand -21.1537 38.7891 0.0261631
lfingers 7.12502 -0 0
lthumb 5.22579 68.6992 0.0246997
rclavicle 4.90998e-14 -1.82882e-14 0
rhumerus 37.8324 18.1582 -42.3704
rradius 58.4599 -0 0
rwrist 0.701715 0 0
rhand -5.81123 -41.6755 -0.02508
rfingers 7.12502 -0 0
rthumb 20.013 -70.6539 -0.021263
2348
root 2.02888 14.5402 -18.8587 -120.014 -83.1216 130.143
lfemur -35.6461 -2.06431 5.63447
ltibia 34.5739 -0 0
lfoot -5.70469 11.7096 -0.307104
ltoes -26.3939 0 0
rfemur -60.6046 -1.64557 8.7811
rtibia 75.9204 -0 0
rfoot -18.1389 -14.5993 0.102804
rtoes -0.956469 0 0
lowerback 21.1268 2.00038 -1.28003
upperback 0.223837 2.30139 0.480202
thorax -11.7137 1.12491 0.568526
lowerneck -6.07054 1.17835 -2.1387
upperneck 4.06827 1.87647 -2.5963
head 2.42941 0.812238 -0.367982
lclavicle 4.90998e-14 -1.82882e-14 0
lhumerus -10.1413 -33.1357 79.8239
lradius 107.683 -0 0
lwrist 56.1663 0 0
lhand -21.3436 38.5345 0.0198717
lfingers 7.12502 -0 0
lthumb 5.04243 68.4502 0.0187603
rclavicle 4.90998e-14 -1.82882e-14 0
rhumerus 37.0217 19.0325 -42.1387
rradius 59.5538 -0 0
rwrist 0.0382793 0 0
rhand -5.56538 -41.864 -0.0190491
rfingers 7.12502 -0 0
rthumb 20.2495 -70.8201 -0.01615
2349
root 2.11352 14.5801 -18.9362 -100.67 -84.3219 111.1
lfemur -37.6455 -1.95614 6.01006
ltibia 34.6326 -0 0
lfoot -5.12194 10.762 -0.212478
ltoes -25.3448 0 0
rfemur -60.1152 -0.827973 8.66534
rtibia 75.7447 -0 0
rfoot -18.5945 -15.008 0.0711583
rtoes -1.19668 0 0
lowerback 21.2593 1.94599 -1.05428
upperback 0.221917 2.28943 0.517777
thorax -11.782 1.10845 0.480533
lowerneck -6.14129 1.5495 -1.86162
upperneck 4.11269 2.37016 -2.91362
head 2.43833 1.05107 -0.502779
lclavicle 4.90998e-14 -1.82882e-14 0
lhumerus -7.75838 -33.5368 78.6496
lradius 108.163 -0 0
lwrist 55.9103 0 0
lhand -21.5077 38.3145 0.0137567
lfingers 7.12502 -0 0
lthumb 4.88405 68.235 0.0129873
rclavicle 4.90998e-14 -1.82882e-14 0
rhumerus 36.3209 19.7903 -41.9481
rradius 60.4988 -0 0
rwrist -0.534894 0 0
rhand -5.353 -42.027 -0.0131873
rfingers 7.12502 -0 0
rthumb 20.4538 -70.9637 -0.0111804
2350
root 2.18254 14.6127 -18.9993 -80.2557 -84.6614 90.931
lfemur -39.2822 -1.85784 6.31465
ltibia 34.6807 -0 0
lfoot -4.64595 9.98674 -0.127823
ltoes -24.4857 0 0
rfemur -59.7157 -0.157725 8.57576
rtibia 75.6008 -0 0
rfoot -18.9674 -15.3426 0.0428242
rtoes -1.39339 0 0
lowerback 21.3677 1.90106 -0.86952
upperback 0.220339 2.27963 0.548548
thorax -11.8379 1.09489 0.40849
lowerneck -6.19789 1.85369 -1.63501
upperneck 4.14703 2.77462 -3.17328
head 2.44522 1.24667 -0.613144
lclavicle 4.90998e-14 -1.82882e-14 0
lhumerus -5.79209 -33.8346 77.6697
lradius 108.555 -0 0
lwrist 55.7007 0 0
lhand -21.642 38.1344 0.00828012
lfingers 7.12502 -0 0
lthumb 4.75436 68.0589 0.00781703
rclavicle 4.90998e-14 -1.82882e-14 0
rhumerus 35.7464 20.4124 -41.7987
rradius 61.2727 -0 0
rwrist -1.00426 0 0
rhand -5.1791 -42.1603 -0.00793738
rfingers 7.12502 -0 0
rthumb 20.6211 -71.0812 -0.00672946
2351
root 2.23411 14.6371 -19.0464 -64.7242 -84.4524 75.5838
lfemur -40.5093 -1.77843 6.54117
ltibia 34.7168 -0 0
lfoot -4.28973 9.4058 -0.0601119
ltoes -23.8413 0 0
rfemur -59.4168 0.345361 8.51164
rtibia 75.4928 -0 0
rfoot -19.247 -15.5934 0.0201453
rtoes -1.54092 0 0
lowerback 21.449 1.86714 -0.731009
upperback 0.219153 2.27228 0.571626
thorax -11.8798 1.08467 0.354467
lowerneck -6.23956 2.08197 -1.46523
upperneck 4.1716 3.07807 -3.36792
head 2.45013 1.39337 -0.695908
lclavicle 4.90998e-14 -1.82882e-14 0
lhumerus -4.30916 -34.0394 76.9249
lradius 108.849 -0 0
lwrist 55.5435 0 0
lhand -21.7428 37.9993 0.00389553
lfingers 7.12502 -0 0
lthumb 4.6571 67.9268 0.00367767
rclavicle 4.90998e-14 -1.82882e-14 0
rhumerus 35.3152 20.8799 -41.6906
rradius 61.8532 -0 0
rwrist -1.35629 0 0
rhand -5.04868 -42.2604 -0.00373429
rfingers 7.12502 -0 0
rthumb 20.7465 -71.1694 -0.00316601
2352
root 2.26639 14.6523 -19.0759 -55.914 -84.132 66.8894
lfemur -41.28 -1.72608 6.68258
ltibia 34.7394 -0 0
lfoot -4.06631 9.04107 -0.01573
ltoes -23.4365 0 0
rfemur -59.2293 0.66157 8.4727
rtibia 75.425 -0 0
rfoot -19.4226 -15.7509 0.00527264
rtoes -1.63361 0 0
lowerback 21.4999 1.84573 -0.644021
upperback 0.218405 2.26766 0.586124
thorax -11.9061 1.07824 0.320533
lowerneck -6.2654 2.22544 -1.35865
upperneck 4.1865 3.26873 -3.49016
head 2.45312 1.48553 -0.747897
lclavicle 4.90998e-14 -1.82882e-14 0
lhumerus -3.37419 -34.1599 76.4529
lradius 109.034 -0 0
lwrist 55.4448 0 0
lhand -21.806 37.9144 0.00101965
lfingers 7.12502 -0 0
lthumb 4.59601 67.8438 0.000962628
rclavicle 4.90998e-14 -1.82882e-14 0
rhumerus 35.0441 21.174 -41.6245
rradius 62.2178 -0 0
rwrist -1.57744 0 0
rhand -4.96675 -42.3232 -0.000977448
rfingers 7.12502 -0 0
rthumb 20.8254 -71.2248 -0.000828703
2353
root 2.4472 14.8745 -20.2084 -53.1 -83.9913 64.1156
lfemur -41.5473 -1.70747 6.73147
ltibia 34.7473 0 0
lfoot -3.98886 8.91457 0
ltoes -23.2961 0 0
rfemur -59.1643 0.771305 8.45943
rtibia 75.4015 0 0
rfoot -19.4835 -15.8055 0
rtoes -1.66576 0 0
lowerback 21.5176 1.83828 -0.613846
upperback 0.218146 2.26606 0.591154
thorax -11.9152 1.076 0.308761
lowerneck -6.2743 2.27523 -1.32168
upperneck 4.19158 3.33489 -3.53256
head 2.45413 1.51751 -0.765933
lclavicle -1.70955e-14 1.59028e-15 0
lhumerus -3.04923 -34.2002 76.2885
lradius 109.098 0 0
lwrist 55.4105 0 0
lhand -21.828 37.885 0
lfingers 7.12502 0 0
lthumb 4.57482 67.815 0
rclavicle -1.70955e-14 1.59028e-15 0
rhumerus 34.95 21.2761 -41.6019
rradius 62.3443 0 0
rwrist -1.65416 0 0
rhand -4.93833 -42.345 0
rfingers 7.12502 0 0
rthumb 20.8527 -71.244 0
